<svg width="19" height="19" viewBox="0 0 19 19" fill="none" xmlns="http://www.w3.org/2000/svg">
<path d="M6.53125 4.75C6.53125 4.59253 6.59381 4.44151 6.70516 4.33016C6.8165 4.21881 6.96753 4.15625 7.125 4.15625H16.0312C16.1887 4.15625 16.3397 4.21881 16.4511 4.33016C16.5624 4.44151 16.625 4.59253 16.625 4.75C16.625 4.90747 16.5624 5.05849 16.4511 5.16984C16.3397 5.28119 16.1887 5.34375 16.0312 5.34375H7.125C6.96753 5.34375 6.8165 5.28119 6.70516 5.16984C6.59381 5.05849 6.53125 4.90747 6.53125 4.75ZM16.0312 8.90625H7.125C6.96753 8.90625 6.8165 8.96881 6.70516 9.08016C6.59381 9.1915 6.53125 9.34253 6.53125 9.5C6.53125 9.65747 6.59381 9.8085 6.70516 9.91985C6.8165 10.0312 6.96753 10.0938 7.125 10.0938H16.0312C16.1887 10.0938 16.3397 10.0312 16.4511 9.91985C16.5624 9.8085 16.625 9.65747 16.625 9.5C16.625 9.34253 16.5624 9.1915 16.4511 9.08016C16.3397 8.96881 16.1887 8.90625 16.0312 8.90625ZM16.0312 13.6562H7.125C6.96753 13.6562 6.8165 13.7188 6.70516 13.8302C6.59381 13.9415 6.53125 14.0925 6.53125 14.25C6.53125 14.4075 6.59381 14.5585 6.70516 14.6698C6.8165 14.7812 6.96753 14.8438 7.125 14.8438H16.0312C16.1887 14.8438 16.3397 14.7812 16.4511 14.6698C16.5624 14.5585 16.625 14.4075 16.625 14.25C16.625 14.0925 16.5624 13.9415 16.4511 13.8302C16.3397 13.7188 16.1887 13.6562 16.0312 13.6562ZM4.15625 4.15625H2.96875C2.81128 4.15625 2.66026 4.21881 2.54891 4.33016C2.43756 4.44151 2.375 4.59253 2.375 4.75C2.375 4.90747 2.43756 5.05849 2.54891 5.16984C2.66026 5.28119 2.81128 5.34375 2.96875 5.34375H4.15625C4.31372 5.34375 4.46474 5.28119 4.57609 5.16984C4.68744 5.05849 4.75 4.90747 4.75 4.75C4.75 4.59253 4.68744 4.44151 4.57609 4.33016C4.46474 4.21881 4.31372 4.15625 4.15625 4.15625ZM4.15625 8.90625H2.96875C2.81128 8.90625 2.66026 8.96881 2.54891 9.08016C2.43756 9.1915 2.375 9.34253 2.375 9.5C2.375 9.65747 2.43756 9.8085 2.54891 9.91985C2.66026 10.0312 2.81128 10.0938 2.96875 10.0938H4.15625C4.31372 10.0938 4.46474 10.0312 4.57609 9.91985C4.68744 9.8085 4.75 9.65747 4.75 9.5C4.75 9.34253 4.68744 9.1915 4.57609 9.08016C4.46474 8.96881 4.31372 8.90625 4.15625 8.90625ZM4.15625 13.6562H2.96875C2.81128 13.6562 2.66026 13.7188 2.54891 13.8302C2.43756 13.9415 2.375 14.0925 2.375 14.25C2.375 14.4075 2.43756 14.5585 2.54891 14.6698C2.66026 14.7812 2.81128 14.8438 2.96875 14.8438H4.15625C4.31372 14.8438 4.46474 14.7812 4.57609 14.6698C4.68744 14.5585 4.75 14.4075 4.75 14.25C4.75 14.0925 4.68744 13.9415 4.57609 13.8302C4.46474 13.7188 4.31372 13.6562 4.15625 13.6562Z" fill="#1E87F0"/>
</svg>
