<svg width="16" height="15" viewBox="0 0 16 15" fill="none" xmlns="http://www.w3.org/2000/svg">
<path fill-rule="evenodd" clip-rule="evenodd" d="M3.80653 0.195858C3.86861 0.257786 3.91787 0.331353 3.95148 0.412347C3.98508 0.49334 4.00238 0.580169 4.00238 0.667858C4.00238 0.755548 3.98508 0.842377 3.95148 0.92337C3.91787 1.00436 3.86861 1.07793 3.80653 1.13986L2.27719 2.66786H9.33453C10.9258 2.66786 12.4519 3.3 13.5772 4.42522C14.7024 5.55044 15.3345 7.07656 15.3345 8.66786C15.3345 10.2592 14.7024 11.7853 13.5772 12.9105C12.4519 14.0357 10.9258 14.6679 9.33453 14.6679H4.00119C3.82438 14.6679 3.65481 14.5976 3.52979 14.4726C3.40476 14.3476 3.33453 14.178 3.33453 14.0012C3.33453 13.8244 3.40476 13.6548 3.52979 13.5298C3.65481 13.4048 3.82438 13.3345 4.00119 13.3345H9.33453C10.5722 13.3345 11.7592 12.8429 12.6344 11.9677C13.5095 11.0925 14.0012 9.90553 14.0012 8.66786C14.0012 7.43018 13.5095 6.2432 12.6344 5.36803C11.7592 4.49286 10.5722 4.00119 9.33453 4.00119H2.27719L3.80653 5.52919C3.86851 5.59118 3.91768 5.66476 3.95122 5.74575C3.98477 5.82673 4.00203 5.91353 4.00203 6.00119C4.00203 6.08885 3.98477 6.17565 3.95122 6.25664C3.91768 6.33762 3.86851 6.41121 3.80653 6.47319C3.74454 6.53518 3.67096 6.58434 3.58997 6.61789C3.50898 6.65143 3.42218 6.6687 3.33453 6.6687C3.24687 6.6687 3.16007 6.65143 3.07908 6.61789C2.99809 6.58434 2.92451 6.53518 2.86252 6.47319L0.195858 3.80653C0.133774 3.7446 0.084517 3.67103 0.0509084 3.59004C0.0172998 3.50904 0 3.42221 0 3.33453C0 3.24684 0.0172998 3.16001 0.0509084 3.07901C0.084517 2.99802 0.133774 2.92445 0.195858 2.86252L2.86252 0.195858C2.92445 0.133774 2.99802 0.084517 3.07901 0.0509084C3.16001 0.0172998 3.24684 0 3.33453 0C3.42221 0 3.50904 0.0172998 3.59004 0.0509084C3.67103 0.084517 3.7446 0.133774 3.80653 0.195858Z" fill="white"/>
</svg>
