<svg width="28" height="23" viewBox="0 0 28 23" fill="none" xmlns="http://www.w3.org/2000/svg">
<g clip-path="url(#clip0_2658_225601)">
<path d="M2.39175 9.95319C2.03489 9.8705 1.71967 9.69606 1.49232 9.45546C1.26497 9.21486 1.13744 8.92076 1.12844 8.61628C1.11944 8.31179 1.22943 8.01295 1.4423 7.76357C1.65516 7.51419 1.9597 7.32739 2.31125 7.23056L25.7274 0.957315C25.8808 0.916241 26.045 0.910754 26.202 0.941459C26.3589 0.972164 26.5025 1.03787 26.6169 1.13133C26.7312 1.22479 26.812 1.34238 26.8502 1.47113C26.8884 1.59989 26.8826 1.73481 26.8334 1.86102L19.2022 21.1053C19.0849 21.3946 18.8576 21.6453 18.5539 21.8205C18.2501 21.9957 17.8859 22.0863 17.5148 22.0788C17.1437 22.0712 16.7854 21.9661 16.4925 21.7788C16.1996 21.5915 15.9876 21.3319 15.8877 21.0382L13.2674 12.096L2.39175 9.95319Z" stroke="white" stroke-width="2.75" stroke-linecap="round" stroke-linejoin="round"/>
<path d="M26.6177 1.125L13.2676 12.0912" stroke="white" stroke-width="2.75" stroke-linecap="round" stroke-linejoin="round"/>
</g>
<defs>
<clipPath id="clip0_2658_225601">
<rect width="28" height="23" fill="white"/>
</clipPath>
</defs>
</svg>
