<svg width="24" height="24" viewBox="0 0 24 24" fill="none" xmlns="http://www.w3.org/2000/svg">
<path d="M20.7517 9.76032C20.5555 9.79315 20.3804 9.90256 20.2649 10.0645C20.1494 10.2264 20.103 10.4276 20.1358 10.6238C20.2119 11.0786 20.2502 11.5389 20.2501 12C20.2519 14.0196 19.5097 15.969 18.1651 17.4759C17.3287 16.2638 16.1525 15.3261 14.7845 14.7806C15.5193 14.2019 16.0556 13.4085 16.3186 12.5109C16.5816 11.6132 16.5584 10.6559 16.2521 9.77209C15.9458 8.88826 15.3718 8.12184 14.6097 7.57941C13.8477 7.03697 12.9355 6.74549 12.0001 6.74549C11.0648 6.74549 10.1526 7.03697 9.39058 7.57941C8.62854 8.12184 8.05446 8.88826 7.7482 9.77209C7.44193 10.6559 7.41869 11.6132 7.68171 12.5109C7.94474 13.4085 8.48095 14.2019 9.21577 14.7806C7.84779 15.3261 6.67161 16.2638 5.83515 17.4759C4.7802 16.2872 4.09109 14.819 3.85069 13.2479C3.61029 11.6768 3.82882 10.0697 4.48002 8.61982C5.13122 7.16997 6.18736 5.93909 7.52145 5.07517C8.85553 4.21126 10.4108 3.75109 12.0001 3.75001C12.4613 3.74994 12.9216 3.78819 13.3764 3.86439C13.5717 3.8952 13.7712 3.84766 13.9317 3.73209C14.0921 3.61653 14.2004 3.4423 14.233 3.24731C14.2656 3.05231 14.2199 2.85232 14.1059 2.69083C13.9918 2.52935 13.8186 2.41944 13.6239 2.38501C11.5871 2.04237 9.49415 2.35589 7.64718 3.2803C5.8002 4.20471 4.2948 5.69218 3.34832 7.52795C2.40184 9.36371 2.06326 11.4528 2.38147 13.4935C2.69968 15.5342 3.65821 17.421 5.11866 18.8815C6.57911 20.342 8.46592 21.3005 10.5067 21.6187C12.5474 21.9369 14.6364 21.5983 16.4722 20.6518C18.308 19.7054 19.7954 18.2 20.7199 16.353C21.6443 14.506 21.9578 12.413 21.6151 10.3763C21.5823 10.1801 21.4729 10.005 21.311 9.88948C21.1491 9.77397 20.9479 9.72751 20.7517 9.76032ZM9.00015 11.25C9.00015 10.6567 9.17609 10.0766 9.50574 9.5833C9.83538 9.08995 10.3039 8.70543 10.8521 8.47837C11.4003 8.25131 12.0035 8.1919 12.5854 8.30765C13.1674 8.42341 13.7019 8.70913 14.1215 9.12869C14.541 9.54825 14.8267 10.0828 14.9425 10.6647C15.0583 11.2467 14.9988 11.8499 14.7718 12.3981C14.5447 12.9462 14.1602 13.4148 13.6669 13.7444C13.1735 14.0741 12.5935 14.25 12.0001 14.25C11.2045 14.25 10.4414 13.9339 9.87883 13.3713C9.31622 12.8087 9.00015 12.0457 9.00015 11.25ZM6.94515 18.5156C7.48771 17.6671 8.23515 16.9688 9.11857 16.4851C10.002 16.0014 10.993 15.7478 12.0001 15.7478C13.0073 15.7478 13.9983 16.0014 14.8817 16.4851C15.7651 16.9688 16.5126 17.6671 17.0551 18.5156C15.6098 19.6397 13.8311 20.2499 12.0001 20.2499C10.1692 20.2499 8.39046 19.6397 6.94515 18.5156ZM22.2808 4.28064L19.2808 7.28064C19.2111 7.35037 19.1284 7.40569 19.0374 7.44343C18.9463 7.48117 18.8487 7.5006 18.7501 7.5006C18.6516 7.5006 18.554 7.48117 18.4629 7.44343C18.3719 7.40569 18.2892 7.35037 18.2195 7.28064L16.7195 5.78064C16.6498 5.71095 16.5946 5.62823 16.5569 5.53718C16.5191 5.44614 16.4997 5.34856 16.4997 5.25001C16.4997 5.15146 16.5191 5.05388 16.5569 4.96284C16.5946 4.87179 16.6498 4.78907 16.7195 4.71939C16.8603 4.57866 17.0511 4.49959 17.2501 4.49959C17.3487 4.49959 17.4463 4.519 17.5373 4.55672C17.6284 4.59443 17.7111 4.6497 17.7808 4.71939L18.7501 5.6897L21.2195 3.21939C21.2892 3.1497 21.3719 3.09443 21.463 3.05672C21.554 3.019 21.6516 2.99959 21.7501 2.99959C21.8487 2.99959 21.9463 3.019 22.0373 3.05672C22.1284 3.09443 22.2111 3.1497 22.2808 3.21939C22.3505 3.28907 22.4057 3.37179 22.4434 3.46284C22.4812 3.55388 22.5006 3.65146 22.5006 3.75001C22.5006 3.84856 22.4812 3.94614 22.4434 4.03718C22.4057 4.12823 22.3505 4.21095 22.2808 4.28064Z" fill="#595D62"/>
</svg>
